# xmcd CD database file
#
# Track frame offsets:
#	150
#	18097
#	36037
#	53310
#
# Disc length: 940 seconds
#
# Revision: 0
# Processed by: cddbd v1.5PL3 Copyright (c) Steve Scherf et al.
# Submitted via: CDex 1.50beta9
#
DISCID=1d03aa04
DTITLE=中山美穂 - クローズ・アップ
DYEAR=1992
DGENRE=J-POP
TTITLE0=クローズ・アップ
TTITLE1=ＪＩＮＧＩ・愛してもらいます
TTITLE2=クローズ・アップ　カラオケ
TTITLE3=ＪＩＮＧＩ・愛してもらいます　カラオケ
EXTD=YEAR: 1992
EXTT0=
EXTT1=
EXTT2=
EXTT3=
PLAYORDER=
